{"title":"I.Cant.Believe.I.Took.The.Whole.Thing.18.XviD-PORNOLATiON","uid":7755381,"size":1462087680,"categoryP":"porn","categoryS":"movies","magnet":"?xt=urn:btih:26e923185ffcda2c110af302032481ce4c07c0c9&amp;dn=I.Cant.Believe.I.Took.The.Whole.Thing.18.XviD-PORNOLATiON&amp;tr=udp%3A%2F%2Ftracker.openbittorrent.com%3A80&amp;tr=udp%3A%2F%2Fopen.demonii.com%3A1337&amp;tr=udp%3A%2F%2Ftracker.coppersurfer.tk%3A6969&amp;tr=udp%3A%2F%2Fexodus.desync.com%3A6969","seeders":0,"leechers":0,"uploader":"R0thschild","files":3,"time":1351038588,"description":"Gallery: \n &lt;a href=&quot;\nhttp://imagedomino.com/?g=399019&quot; rel=&quot;nofollow&quot; target=&quot;_NEW&quot;&gt;\nhttp://imagedomino.com/?g=399019&lt;/a&gt;\n\nVideo\nFormat                           : MPEG-4 Visual\nFormat profile                   : Streaming Video@L1\nFormat settings, BVOP            : Yes\nFormat settings, QPel            : No\nFormat settings, GMC             : No warppoints\nFormat settings, Matrix          : Default\nMuxing mode                      : Packed bitstream\nCodec ID                         : XVID\nCodec ID/Hint                    : XviD\nDuration                         : 1h 16mn\nBit rate                         : 1 133 Kbps\nWidth                            : 512 pixels\nHeight                           : 288 pixels\nDisplay aspect ratio             : 16/9\nFrame rate                       : 29.970 fps\nResolution                       : 24 bits\nColorimetry                      : 4:2:0\nScan type                        : Progressive\nBits/(Pixel*Frame)               : 0.256\nStream size                      : 620 MiB (89%)\nWriting library                  : XviD 1.0.2 (UTC 2004-08-29)\n\nAudio\nFormat                           : MPEG Audio\nFormat version                   : Version 1\nFormat profile                   : Layer 3\nCodec ID                         : 55\nCodec ID/Hint                    : MP3\nDuration                         : 1h 16mn\nBit rate mode                    : Variable\nBit rate                         : 129 Kbps\nNominal bit rate                 : 128 Kbps\nChannel(s)                       : 2 channels\nSampling rate                    : 48.0 KHz\nResolution                       : 16 bits\nStream size                      : 70.6 MiB (10%)\nAlignment                        : Aligned on interleaves\nInterleave, duration             : 24 ms (0.72 video frame)\nInterleave, preload duration     : 136 ms\nWriting library                  : LAME3.90.\nEncoding settings                : ABR","torrent":{"xt":"urn:btih:26e923185ffcda2c110af302032481ce4c07c0c9","amp;dn":"I.Cant.Believe.I.Took.The.Whole.Thing.18.XviD-PORNOLATiON","amp;tr":["udp%3A%2F%2Ftracker.openbittorrent.com%3A80","udp%3A%2F%2Fopen.demonii.com%3A1337","udp%3A%2F%2Ftracker.coppersurfer.tk%3A6969","udp%3A%2F%2Fexodus.desync.com%3A6969"],"infoHash":"26e923185ffcda2c110af302032481ce4c07c0c9","infoHashBuffer":{"type":"Buffer","data":[38,233,35,24,95,252,218,44,17,10,243,2,3,36,129,206,76,7,192,201]},"announce":[],"urlList":[]}}